<svg t="1752793337111" class="icon" viewBox="0 0 1024 1024" version="1.1" xmlns="http://www.w3.org/2000/svg" p-id="5886" width="36" height="36"><path d="M1024 0H0v1024h1024V0z" fill="#1296db" fill-opacity=".01" p-id="5887"></path><path d="M926.165333 97.834667a42.666667 42.666667 0 0 1 10.112 44.266666l-268.8 768a42.666667 42.666667 0 0 1-79.274666 3.221334l-146.922667-330.602667-330.602667-146.922667a42.666667 42.666667 0 0 1 3.221334-79.274666l768-268.8a42.666667 42.666667 0 0 1 44.266666 10.112zM243.669333 401.493333l247.253334 109.888a42.666667 42.666667 0 0 1 21.674666 21.674667l109.866667 247.253333L826.453333 197.546667 243.669333 401.493333z" fill="#1296db" p-id="5888"></path><path d="M883.498667 140.501333a42.666667 42.666667 0 0 1 0 60.330667l-362.666667 362.666667a42.666667 42.666667 0 1 1-60.330667-60.330667l362.666667-362.666667a42.666667 42.666667 0 0 1 60.330667 0z" fill="#1296db" p-id="5889"></path></svg>