<svg xmlns="http://www.w3.org/2000/svg" width="100" height="100" viewBox="0 0 100 100" fill="none">
<path d="M20.6564 80.2903L20.543 79.8669M52.9976 45.6276C51.9147 43.0747 49.3863 41.2812 46.4364 41.2812C42.53 41.2812 39.3547 42.9081 39.317 46.7875C39.3166 46.8335 39.3158 46.8787 39.3166 46.9247C39.3275 47.5273 39.65 51.978 46.804 51.978C53.2912 51.978 53.5655 56.5632 53.5602 57.418C53.5597 57.509 53.5566 57.6013 53.5549 57.6923C53.481 61.5261 50.3248 63.2727 46.4364 63.2727C43.4866 63.2727 40.9582 61.4792 39.8753 58.9263M46.4366 41.2803V38.3794M46.4366 66.1772V63.2764M60.6006 26.2492L65.5347 31.6287C65.9109 32.039 66.5577 32.0389 66.9339 31.6286L76.3448 21.362M9.72874 39.5076L8.58473 35.2381C8.04202 33.2127 9.244 31.1308 11.2694 30.5881L20.543 28.1032M9.72874 39.5076L2.76829 46.4681C1.28557 47.9508 1.28557 50.3547 2.76829 51.8374L16.7895 65.8586M9.72874 39.5076L16.7895 65.8586M16.7895 65.8586L20.543 79.8669M20.543 79.8669V80.7839C20.543 82.8808 22.2428 84.5806 24.3397 84.5806H68.5367C70.6336 84.5806 72.3335 82.8808 72.3335 80.7839V39.8741M20.543 79.8669V28.1032M20.543 28.1032V23.7737C20.543 21.6768 22.2428 19.977 24.3397 19.977H56.3852M56.3852 19.977C55.1068 22.043 54.3689 24.4787 54.3689 27.0867C54.3689 34.5595 60.4267 40.6173 67.8995 40.6173C69.4525 40.6173 70.9444 40.3557 72.3335 39.8741M56.3852 19.977C58.7697 16.1234 63.0348 13.5562 67.8995 13.5562C75.3722 13.5562 81.4301 19.614 81.4301 27.0867C81.4301 33.0065 77.6285 38.0383 72.3335 39.8741" stroke="black" stroke-width="1.5" stroke-linecap="round" stroke-linejoin="round"/>
</svg>