<svg xmlns="http://www.w3.org/2000/svg" width="100" height="100" viewBox="0 0 100 100" fill="none">
<path d="M2.62919 27.9159H41.6763M51.7137 58.6615C50.6742 56.2109 48.2472 54.4894 45.4156 54.4894M45.4156 54.4894C41.668 54.4894 38.6214 56.0492 38.5817 59.7683C38.5812 59.8168 38.5804 59.8639 38.5814 59.9124C38.5938 60.5129 38.9237 64.7573 45.7684 64.7573C51.9665 64.7573 52.2562 69.1177 52.2539 69.9674C52.2536 70.0633 52.2504 70.1594 52.2484 70.2553C52.1707 73.9264 49.1438 75.5991 45.4156 75.5991C42.5841 75.5991 40.157 73.8776 39.1175 71.427M45.4156 54.4894L45.4157 51.7045M45.4157 78.3876V75.6031M31.389 51.2199C27.8837 54.7761 25.7204 59.6587 25.7204 65.0466C25.7204 69.4797 27.1849 73.5707 29.6565 76.8623M31.389 51.2199C34.9611 47.5959 39.927 45.3494 45.4176 45.3494C56.2961 45.3494 65.1148 54.1681 65.1148 65.0466C65.1148 75.925 56.2961 84.7438 45.4176 84.7438C38.9722 84.7438 33.2499 81.648 29.6565 76.8623M31.389 51.2199L28.9557 48.6115C27.5508 47.1056 27.519 44.7791 28.8821 43.2353L40.8486 29.6833C41.494 28.9524 41.8502 28.0109 41.8502 27.0357V19.6095C41.8502 17.4004 40.0593 15.6095 37.8502 15.6095L6.56641 15.6095C4.35727 15.6095 2.56641 17.4004 2.56641 19.6095L2.56641 27.0741C2.56641 28.026 2.9059 28.9468 3.52388 29.6708L15.1455 43.2876C16.449 44.8148 16.4182 47.0718 15.0736 48.563L3.59574 61.2921C2.93314 62.027 2.56641 62.9813 2.56641 63.9708L2.56641 72.8623C2.56641 75.0714 4.35727 76.8623 6.56641 76.8623L29.6565 76.8623" stroke="black" stroke-width="1.5" stroke-linecap="round" stroke-linejoin="round"/>
</svg>