<svg xmlns="http://www.w3.org/2000/svg" width="100" height="100" viewBox="0 0 100 100" fill="none">
<path d="M9.34507 45.8768L9.34507 46.6268L9.34507 45.8768ZM57.6382 45.8766L57.6382 45.1266L57.6382 45.8766ZM57.6382 84.6901L57.6382 85.4401L57.6382 84.6901ZM7.06771 84.6904L7.06771 83.9404H7.06771L7.06771 84.6904ZM3.17671 80.7994H2.42671H3.17671ZM3.92671 40.0727C3.92671 39.6585 3.59092 39.3227 3.17671 39.3227C2.7625 39.3227 2.42671 39.6585 2.42671 40.0727H3.92671ZM9.34501 33.3489L9.34501 34.0989L9.34501 33.3489ZM57.1719 33.3486L57.1719 32.5986L57.1719 33.3486ZM60.3129 47.9073C60.3129 48.3215 60.6487 48.6573 61.0629 48.6573C61.4771 48.6573 61.8129 48.3215 61.8129 47.9073H60.3129ZM38.1303 29.0948C38.2921 29.4762 38.7323 29.6542 39.1136 29.4924C39.495 29.3307 39.673 28.8904 39.5112 28.5091L38.1303 29.0948ZM25.9977 29.9548L26.7472 29.982C26.7476 29.9729 26.7477 29.9638 26.7477 29.9548H25.9977ZM39.3443 39.9808L38.5963 39.9269C38.595 39.9448 38.5943 39.9628 38.5943 39.9808H39.3443ZM27.2117 40.9739C27.05 40.5926 26.6097 40.4146 26.2284 40.5763C25.8471 40.7381 25.6691 41.1783 25.8308 41.5597L27.2117 40.9739ZM33.4209 22.0091C33.4209 21.5949 33.0851 21.2591 32.6709 21.2591C32.2567 21.2592 31.9209 21.595 31.9209 22.0092L33.4209 22.0091ZM12.4685 33.3488L13.216 33.4104L12.4685 33.3488ZM52.8783 33.3486L52.1308 33.4102L52.8783 33.3486ZM32.6735 45.8767L32.6735 46.6267L32.6735 45.8767ZM61.5292 57.3411L61.2706 58.0451L61.5292 57.3411ZM57.6382 83.9401L7.06771 83.9404L7.06771 85.4404L57.6382 85.4401L57.6382 83.9401ZM3.92671 80.7994L3.92671 40.7094H2.42671L2.42671 80.7994H3.92671ZM3.92671 40.7094V40.0727H2.42671V40.7094H3.92671ZM60.3129 37.2396V47.9073H61.8129V37.2396H60.3129ZM57.1719 34.0986C58.9066 34.0986 60.3129 35.5049 60.3129 37.2396H61.8129C61.8129 34.6765 59.735 32.5986 57.1719 32.5986L57.1719 34.0986ZM7.06771 83.9404C5.33298 83.9404 3.92671 82.5341 3.92671 80.7994H2.42671C2.42671 83.3625 4.50456 85.4404 7.06771 85.4404L7.06771 83.9404ZM60.7792 80.7991C60.7792 82.5338 59.373 83.9401 57.6382 83.9401L57.6382 85.4401C60.2014 85.4401 62.2792 83.3623 62.2792 80.7991H60.7792ZM57.6382 46.6266C59.3729 46.6266 60.7792 48.0329 60.7792 49.7676H62.2792C62.2792 47.2044 60.2014 45.1266 57.6382 45.1266L57.6382 46.6266ZM2.33105 39.6128C2.33105 40.0308 2.3677 40.4409 2.43813 40.8398L3.91529 40.579C3.85999 40.2658 3.83105 39.943 3.83105 39.6128H2.33105ZM2.43813 40.8398C3.01881 44.1286 5.88943 46.6268 9.34507 46.6268L9.34506 45.1268C6.62983 45.1268 4.37162 43.1635 3.91529 40.579L2.43813 40.8398ZM3.83105 39.6128C3.83105 36.5676 6.29973 34.0989 9.34501 34.0989L9.345 32.5989C5.4713 32.5989 2.33105 35.7391 2.33105 39.6128H3.83105ZM39.5112 28.5091C38.383 25.8494 35.748 23.9782 32.671 23.9782V25.4782C35.1238 25.4782 37.2285 26.9688 38.1303 29.0948L39.5112 28.5091ZM32.671 23.9782C30.741 23.9782 28.9016 24.38 27.5228 25.3459C26.1069 26.3379 25.2477 27.8779 25.2477 29.9548H26.7477C26.7477 28.3482 27.3835 27.2749 28.3834 26.5744C29.4204 25.848 30.9176 25.4782 32.671 25.4782V23.9782ZM25.9977 29.9548C25.2482 29.9275 25.2482 29.9281 25.2482 29.9287C25.2482 29.9289 25.2481 29.9295 25.2481 29.9299C25.2481 29.9308 25.2481 29.9318 25.248 29.9328C25.248 29.9349 25.2479 29.9372 25.2478 29.9399C25.2477 29.9452 25.2476 29.9517 25.2475 29.9594C25.2473 29.9747 25.2473 29.9946 25.2476 30.0188C25.2482 30.0673 25.2504 30.1331 25.2561 30.2139C25.2675 30.3751 25.2931 30.5976 25.3493 30.8612C25.4616 31.3873 25.6987 32.0883 26.1988 32.7899C27.2266 34.2316 29.2372 35.5042 33.0155 35.5042V34.0042C29.6015 34.0042 28.1032 32.8771 27.4202 31.9191C27.0649 31.4208 26.8961 30.9219 26.8163 30.5481C26.7765 30.3618 26.7596 30.2093 26.7524 30.1081C26.7488 30.0576 26.7477 30.0203 26.7474 29.9985C26.7473 29.9875 26.7473 29.9805 26.7474 29.9777C26.7474 29.9762 26.7474 29.9759 26.7474 29.9766C26.7474 29.9769 26.7474 29.9776 26.7473 29.9785C26.7473 29.9789 26.7473 29.9794 26.7473 29.98C26.7473 29.9803 26.7473 29.9808 26.7473 29.981C26.7472 29.9815 26.7472 29.982 25.9977 29.9548ZM33.0155 35.5042C36.1362 35.5042 37.4496 36.6971 38.0427 37.7386C38.3558 38.2884 38.4957 38.8449 38.5558 39.2694C38.5857 39.4802 38.5953 39.6538 38.5976 39.7709C38.5987 39.8293 38.5981 39.8732 38.5973 39.9001C38.5969 39.9136 38.5964 39.9228 38.5962 39.9273C38.5961 39.9296 38.596 39.9307 38.596 39.9307C38.596 39.9307 38.5961 39.9303 38.5961 39.9297C38.5961 39.9294 38.5961 39.929 38.5962 39.9285C38.5962 39.9283 38.5962 39.9279 38.5962 39.9278C38.5963 39.9273 38.5963 39.9269 39.3443 39.9808C40.0924 40.0347 40.0924 40.0342 40.0925 40.0337C40.0925 40.0335 40.0925 40.033 40.0926 40.0326C40.0926 40.0318 40.0927 40.0309 40.0927 40.03C40.0929 40.0281 40.093 40.0259 40.0932 40.0233C40.0935 40.0182 40.0938 40.0119 40.0942 40.0043C40.095 39.9891 40.0959 39.9689 40.0966 39.9441C40.0981 39.8944 40.0989 39.826 40.0973 39.7415C40.094 39.5728 40.0806 39.3381 40.041 39.0589C39.9622 38.5034 39.7772 37.7533 39.3462 36.9964C38.4512 35.4246 36.6003 34.0042 33.0155 34.0042V35.5042ZM38.5943 39.9808C38.5943 41.5907 37.9563 42.702 36.9491 43.4358C35.9108 44.1922 34.4155 44.5906 32.671 44.5906V46.0906C34.6146 46.0906 36.456 45.6508 37.8323 44.6482C39.2397 43.6229 40.0943 42.0543 40.0943 39.9808H38.5943ZM32.671 44.5906C30.2182 44.5906 28.1136 43.0999 27.2117 40.9739L25.8308 41.5597C26.959 44.2193 29.5941 46.0906 32.671 46.0906V44.5906ZM33.421 24.7281L33.4209 22.0091L31.9209 22.0092L31.921 24.7282L33.421 24.7281ZM46.9302 57.6173H58.8525V56.1173H46.9302V57.6173ZM58.8525 71.6442H46.9302V73.1442H58.8525V71.6442ZM46.9302 71.6442C43.0568 71.6442 39.9168 68.5042 39.9168 64.6307H38.4168C38.4168 69.3326 42.2284 73.1442 46.9302 73.1442V71.6442ZM46.9302 56.1173C42.2284 56.1173 38.4168 59.9289 38.4168 64.6307H39.9168C39.9168 60.7573 43.0568 57.6173 46.9302 57.6173V56.1173ZM13.1493 35.0363C13.1493 34.4887 13.1718 33.9464 13.216 33.4104L11.721 33.2873C11.6735 33.8641 11.6493 34.4475 11.6493 35.0363H13.1493ZM13.216 33.4104C14.0418 23.3887 22.4382 15.5122 32.6734 15.5122V14.0122C21.651 14.0122 12.6104 22.4939 11.721 33.2873L13.216 33.4104ZM9.34501 34.0989L12.4685 34.0988L12.4685 32.5988L9.345 32.5989L9.34501 34.0989ZM52.8783 34.0986L57.1719 34.0986L57.1719 32.5986L52.8783 32.5986L52.8783 34.0986ZM32.6734 15.5122C42.9086 15.5122 51.305 23.3886 52.1308 33.4102L53.6258 33.287C52.7363 22.4938 43.6958 14.0122 32.6734 14.0122V15.5122ZM52.1308 33.4102C52.175 33.9463 52.1976 34.4886 52.1976 35.0363H53.6976C53.6976 34.4474 53.6733 33.864 53.6258 33.287L52.1308 33.4102ZM52.1976 35.0363C52.1976 38.8769 51.0894 42.4563 49.1757 45.4751L50.4426 46.2782C52.5041 43.0264 53.6976 39.1696 53.6976 35.0363H52.1976ZM49.8092 46.6266L57.6382 46.6266L57.6382 45.1266L49.8092 45.1266L49.8092 46.6266ZM9.34507 46.6268L15.5378 46.6268L15.5378 45.1268L9.34506 45.1268L9.34507 46.6268ZM16.1712 45.4752C14.2575 42.4565 13.1493 38.877 13.1493 35.0363H11.6493C11.6493 39.1697 12.8428 43.0265 14.9043 46.2784L16.1712 45.4752ZM15.5378 46.6268L32.6735 46.6267L32.6735 45.1267L15.5378 45.1268L15.5378 46.6268ZM32.6735 46.6267L49.8092 46.6266L49.8092 45.1266L32.6735 45.1267L32.6735 46.6267ZM58.8525 57.6173C59.7037 57.6173 60.5178 57.7686 61.2706 58.0451L61.7878 56.6371C60.8718 56.3006 59.8827 56.1173 58.8525 56.1173V57.6173ZM61.2706 58.0451C63.9537 59.0306 65.866 61.6083 65.866 64.6307H67.366C67.366 60.9593 65.0423 57.8324 61.7878 56.6371L61.2706 58.0451ZM60.7792 49.7676V57.3411H62.2792V49.7676H60.7792ZM60.7792 71.9204V80.7991H62.2792V71.9204H60.7792ZM65.866 64.6307C65.866 67.6532 63.9537 70.2309 61.2706 71.2164L61.7878 72.6244C65.0423 71.429 67.366 68.3022 67.366 64.6307H65.866ZM61.2706 71.2164C60.5178 71.4929 59.7037 71.6442 58.8525 71.6442V73.1442C59.8827 73.1442 60.8718 72.9609 61.7878 72.6244L61.2706 71.2164Z" fill="black"/>
</svg>