<?xml version="1.0" standalone="no"?><!DOCTYPE svg PUBLIC "-//W3C//DTD SVG 1.1//EN" "http://www.w3.org/Graphics/SVG/1.1/DTD/svg11.dtd"><svg t="1750223554461" class="icon" viewBox="0 0 1024 1024" version="1.1" xmlns="http://www.w3.org/2000/svg" p-id="11100" xmlns:xlink="http://www.w3.org/1999/xlink" width="14" height="14"><path d="M486.50176 966.4c-11.072 0-22.08-2.816-31.744-8.128l-246.08-136.32-2.88 2.432a108.16 108.16 0 0 1-115.264 14.72 99.712 99.712 0 0 1-58.24-96.576 101.12 101.12 0 0 1 70.912-88.448l3.584-1.152V380.352c0.064-21.76 12.16-41.92 31.872-52.864l249.664-138.24-1.152-3.84a95.616 95.616 0 0 1-4.096-27.52c0-39.36 24-75.008 61.312-91.264a108.16 108.16 0 0 1 112 15.616c30.912 25.856 43.264 66.56 31.616 104.32l-1.28 3.84 247.68 137.088a60.992 60.992 0 0 1 31.872 52.864v272.64l3.584 1.088a101.056 101.056 0 0 1 70.784 88.448 99.648 99.648 0 0 1-58.112 96.512 108.16 108.16 0 0 1-115.2-14.656l-2.88-2.432-246.08 136.32a66.944 66.944 0 0 1-31.808 8.128zM238.82176 725.76l0.768 3.52c2.752 12.992 2.752 26.432 0 39.424l-0.768 3.52 247.872 137.28 247.808-137.024-0.768-3.584a95.04 95.04 0 0 1 0-39.424l0.768-3.584-87.552-48.512-145.28 80.192a31.488 31.488 0 0 1-29.888 0.064L326.30976 677.12l-87.552 48.64z m597.504-19.648c-24.64 0.064-44.672 19.328-44.608 43.008 0 23.68 20.032 42.88 44.8 42.88 24.64 0 44.672-19.2 44.672-42.88 0-23.68-19.904-42.88-44.608-43.008h-0.256z m-699.52 0c-24.64 0.064-44.608 19.328-44.608 42.944 0 23.68 20.032 42.88 44.8 42.88 24.64 0 44.672-19.2 44.672-42.88 0-23.68-19.904-42.88-44.608-42.88h-0.192z m219.52-222.912v144.384l130.304 72.192 130.304-72.192V483.2L486.56576 411.008 356.26176 483.2z m192.768-243.968c-8.768 6.144-18.56 10.88-28.8 14.08l-3.712 1.152v106.88L661.66976 441.6c9.408 5.12 15.232 14.656 15.232 24.96v160.96l87.552 48.448 2.88-2.432c10.368-8.64 22.4-15.36 35.392-19.584l3.648-1.152V378.24L551.78176 237.184l-2.752 1.92zM166.82176 378.24v274.56l3.584 1.152c13.056 4.224 25.088 10.88 35.456 19.584l2.816 2.432 87.616-48.512V466.56c0-10.24 5.76-19.648 14.976-24.832l145.408-80.448v-107.52l-3.584-1.28a102.464 102.464 0 0 1-27.52-13.952l-2.816-1.984L166.82176 378.24zM487.78176 114.944a44.8 44.8 0 0 0-41.408 26.496 41.6 41.6 0 0 0 9.728 46.848c12.8 12.288 32 15.936 48.768 9.28a42.944 42.944 0 0 0 27.648-39.68c-0.064-23.68-20.096-42.88-44.8-42.88z" fill="#000000" p-id="11101"></path></svg>