<svg t="1752543568691" class="icon" viewBox="0 0 1024 1024" version="1.1" xmlns="http://www.w3.org/2000/svg" p-id="3038" width="24" height="24"><path d="M491.050667 642.730667c-52.8 52.650667-103.872 77.098667-154.837334 77.098666-123.733333 0-208.128-84.736-208.128-207.573333 0-114.304 87.04-192.533333 208.128-192.533333 129.557333 0 224.384 94.869333 238.805334 278.08l0.512 6.912c9.258667 138.666667 89.450667 228.565333 201.216 241.706666 101.077333 11.904 202.496-44.48 234.069333-138.197333 61.802667-183.402667-103.488-344.832-291.242667-279.274667l42.304 120.533334c87.466667-30.506667 155.285333 35.712 127.530667 118.058666-11.242667 33.386667-54.016 57.173333-97.642667 52.032-47.573333-5.610667-81.6-42.645333-88.042666-118.037333l-0.426667-5.333333C686.464 343.68 537.386667 192 336.213333 192 147.2 192 0 324.266667 0 512.256 0 705.429333 141.546667 847.573333 336.213333 847.573333c87.765333 0 170.090667-39.402667 245.397334-114.496l-90.56-90.325333z" fill="#ffffff" p-id="3039"></path></svg>